P2
#_Criado_por:_André_Neves_Medeiros
64 64
255
221 227 232 236 240 243 246 248 248 250 253 254 255 255 255 255 255 255 255 255 255 255 255 255 255 255 255 255 255 255 255 255 255 255 255 255 255 255 255 255 255 255 255 255 255 255 255 255 255 255 255 255 255 255 255 255 255 255 255 255 255 254 254 253 
221 227 232 237 240 243 246 248 248 249 251 253 255 255 255 255 255 255 255 255 255 255 255 255 255 255 255 255 255 255 255 255 255 255 255 255 255 255 255 255 255 255 255 255 255 255 255 255 255 255 255 255 255 255 255 255 255 255 255 255 255 254 254 254 
220 227 232 236 240 243 246 248 248 249 251 252 254 255 255 255 255 255 255 255 255 255 255 255 255 255 255 255 255 255 255 255 255 255 255 255 255 255 255 255 255 255 255 255 255 255 255 255 255 255 255 255 255 255 255 255 255 255 255 255 255 254 254 254 
221 227 232 236 240 243 246 247 248 249 251 252 254 254 255 255 255 255 255 255 255 255 255 255 255 255 255 255 255 255 255 255 255 255 255 255 255 255 255 255 255 255 255 255 255 255 255 255 255 255 255 255 255 255 255 255 255 255 255 255 255 254 254 254 
219 225 230 234 238 242 245 247 248 249 251 252 253 253 254 255 255 255 255 255 255 255 255 255 255 255 255 255 255 255 255 255 255 255 255 255 255 255 255 255 255 255 255 255 255 255 255 255 255 255 255 255 255 255 255 255 255 255 255 255 255 254 254 254 
218 223 228 232 236 241 244 246 248 249 251 252 253 253 254 255 255 255 255 255 255 255 255 255 255 255 255 255 255 255 255 255 255 255 255 255 255 255 255 255 255 255 255 255 255 255 255 255 255 255 255 255 255 255 255 255 255 255 255 255 255 254 254 254 
216 221 226 230 234 238 242 245 247 248 249 251 252 253 253 254 254 254 255 255 255 255 255 255 255 255 255 255 255 255 255 255 255 255 255 255 255 255 255 255 255 255 255 255 255 255 255 255 255 255 255 255 255 255 255 255 255 255 255 255 255 254 254 254 
213 218 224 228 232 236 239 242 245 247 248 250 251 252 253 253 253 253 254 255 255 255 255 255 255 255 255 255 255 255 255 255 255 255 255 255 255 255 255 255 255 255 255 254 255 255 255 255 255 255 255 255 255 255 255 255 255 255 255 255 255 254 254 254 
210 215 221 226 230 233 237 241 243 246 247 249 250 251 252 252 252 253 253 254 254 254 254 254 255 255 255 255 255 255 255 255 255 255 255 255 255 255 255 255 255 255 253 250 254 255 255 255 255 255 255 255 255 255 255 255 255 255 255 255 255 254 254 254 
207 212 217 223 228 231 235 238 242 244 245 247 248 249 250 251 251 252 252 253 253 254 254 254 255 255 255 255 255 255 255 255 255 255 255 255 255 255 255 255 255 255 221 182 250 255 255 255 255 255 255 255 255 255 255 255 255 255 255 255 255 254 254 254 
204 208 214 220 225 229 233 236 239 241 244 245 246 247 248 249 250 251 251 252 252 252 253 253 254 254 254 255 255 255 255 255 255 255 255 255 255 255 255 255 255 255 205 180 250 255 255 255 255 255 255 255 255 255 255 255 255 255 255 255 255 254 254 254 
201 206 211 216 222 226 231 234 236 239 241 243 243 245 246 247 248 249 250 251 251 251 252 252 252 253 253 253 254 254 254 255 255 255 255 255 255 255 255 255 255 255 193 177 229 255 255 255 255 255 255 255 255 255 255 255 255 255 255 255 255 254 254 254 
195 201 204 215 215 218 223 231 232 236 237 237 233 236 238 238 242 239 241 240 240 242 241 240 244 242 241 243 243 248 250 251 253 253 253 253 253 253 253 254 253 254 173 184 238 254 254 254 254 254 254 253 254 254 254 255 255 255 255 255 255 254 254 254 
150 145 150 150 151 173 200 170 170 168 173 179 172 173 178 179 170 178 179 176 182 192 206 183 199 201 198 206 206 213 209 214 218 212 220 218 218 222 220 218 219 232 138 148 235 234 238 238 242 245 249 249 252 251 253 254 255 255 255 255 255 254 254 254 
111 111 109 107 112 130 156 128 133 129 133 133 126 130 127 129 125 123 135 135 141 139 150 128 144 148 157 153 152 177 176 185 163 168 164 174 180 179 174 163 168 170 134 183 222 193 205 192 198 207 212 213 219 224 226 231 229 233 235 236 239 236 242 239 
79 82 93 90 93 105 128 106 107 106 112 107 100 113 99 92 113 109 110 108 105 108 107 108 110 117 116 138 159 164 129 155 149 146 135 130 138 159 196 170 167 157 138 199 216 173 180 154 158 166 171 164 174 178 178 186 185 190 201 189 201 224 207 206 
63 66 82 70 74 92 117 116 98 90 91 79 88 107 112 101 93 121 128 107 94 89 114 88 87 86 95 122 113 121 105 123 168 169 92 94 99 137 150 133 116 125 136 207 185 134 136 117 125 129 127 134 143 145 145 147 143 155 158 159 161 168 157 166 
63 62 75 80 74 88 100 111 94 80 85 80 107 97 112 99 88 111 139 160 148 174 144 125 137 136 127 126 119 113 90 124 169 148 100 110 79 125 140 131 108 121 133 217 166 119 89 97 108 102 108 143 177 150 135 126 120 126 142 157 147 152 146 154 
64 77 69 81 89 90 84 119 85 62 72 75 101 89 90 98 85 101 153 164 97 121 102 105 100 114 94 121 149 123 89 142 112 86 59 98 55 100 131 174 88 104 129 235 153 94 92 85 85 86 104 133 148 136 131 134 126 97 125 130 124 126 132 150 
56 65 55 69 74 86 123 161 132 101 90 105 112 82 78 85 84 94 134 124 113 120 118 118 100 76 76 109 97 67 62 100 77 61 43 78 80 72 83 100 59 110 132 207 149 115 126 123 126 124 113 109 147 125 124 123 124 127 126 93 84 86 104 153 
45 51 53 74 122 113 129 152 136 145 121 107 89 74 81 117 100 85 122 127 125 134 131 130 133 117 118 128 124 105 81 82 104 94 85 97 96 80 102 119 98 119 127 132 124 114 114 133 166 160 130 117 122 125 113 103 125 122 106 106 97 97 88 125 
82 121 112 81 113 121 134 153 173 174 176 124 105 87 96 138 126 130 153 144 174 146 126 144 160 169 170 120 95 123 118 90 84 67 66 73 65 75 92 126 125 108 90 100 112 102 106 152 176 168 153 140 136 139 129 111 118 115 104 101 89 65 59 86 
126 139 143 122 117 133 140 165 157 161 154 142 113 112 132 137 143 153 158 142 173 138 126 149 158 160 170 98 87 137 146 107 96 89 83 74 73 72 83 89 84 85 67 92 100 101 104 137 139 155 141 150 159 165 130 80 84 128 117 99 77 45 44 49 
132 130 133 139 149 157 165 189 160 166 184 174 159 130 112 92 152 168 184 170 167 106 117 184 187 111 140 98 88 126 117 115 121 119 104 91 93 58 79 62 55 73 42 58 82 94 94 121 104 131 171 156 136 139 103 65 56 91 86 78 54 41 56 53 
131 138 133 139 149 172 173 195 183 191 167 162 172 98 106 122 126 153 171 168 161 131 118 184 158 129 130 110 114 110 99 98 114 108 117 132 123 72 59 64 56 79 60 56 79 77 78 83 77 119 138 124 118 122 127 99 67 75 73 68 47 32 41 37 
166 177 169 158 160 171 161 185 186 156 159 169 152 71 79 120 129 126 158 170 160 133 118 152 154 178 140 90 102 93 105 113 172 118 142 138 146 112 83 96 89 84 64 70 76 93 52 44 75 91 116 114 108 112 110 103 100 115 121 108 86 58 43 43 
169 183 106 104 143 153 157 165 143 143 143 164 158 108 88 130 130 113 122 148 166 143 79 135 135 110 121 73 71 78 108 114 181 115 134 117 139 133 105 110 104 115 105 67 52 61 42 43 88 80 85 93 98 102 107 101 116 124 119 138 123 82 77 81 
166 172 132 137 153 162 153 167 147 143 156 199 195 159 140 166 160 102 123 105 115 151 91 124 130 103 84 92 74 71 88 87 121 113 119 117 123 101 85 112 130 139 130 102 91 85 60 53 99 112 93 80 81 88 98 95 107 119 103 118 124 108 100 97 
152 156 145 146 149 151 154 151 142 178 165 175 134 120 109 148 139 117 85 82 106 155 122 119 114 86 63 73 59 72 94 73 86 92 101 115 99 66 62 104 161 181 122 78 75 84 83 70 102 103 106 92 104 88 82 75 113 133 105 107 111 139 124 118 
146 151 136 145 176 189 156 139 148 181 173 164 118 120 88 143 155 141 88 70 116 139 136 127 129 112 82 56 41 52 72 40 51 79 101 128 112 63 53 96 136 111 69 59 61 73 73 69 73 86 96 82 112 118 127 82 115 110 83 98 106 180 98 102 
154 114 116 132 161 126 146 143 102 133 170 167 150 125 78 100 144 147 155 143 142 154 150 151 149 139 125 97 97 106 85 30 37 75 76 107 100 65 37 71 94 109 76 58 60 53 64 68 63 93 105 96 114 129 134 133 122 80 86 90 129 154 69 74 
91 117 132 129 151 128 98 99 79 109 161 161 133 92 80 81 129 149 161 144 155 168 168 159 146 137 137 126 128 129 115 55 33 63 48 64 75 69 49 40 52 79 54 45 49 32 42 91 85 104 101 103 116 135 135 137 141 89 68 73 85 69 77 101 
129 134 142 140 135 101 69 70 60 102 166 147 113 81 86 104 137 141 145 138 146 168 165 157 128 128 143 139 113 90 110 85 40 30 24 39 61 71 72 37 45 42 41 36 24 13 15 68 79 99 104 103 118 136 136 136 132 107 51 53 91 83 84 92 
142 144 147 148 152 110 41 47 36 75 134 122 69 58 91 109 140 141 135 144 182 174 152 156 156 145 126 92 55 45 62 74 45 11 16 24 35 40 42 39 51 26 22 47 26 24 6 78 64 82 81 93 96 134 135 138 132 102 71 61 83 102 121 105 
147 148 148 143 145 92 26 52 18 52 70 87 103 64 86 126 167 184 177 193 216 193 155 155 157 169 111 35 33 37 46 68 45 23 29 23 12 19 52 63 40 30 43 55 50 67 33 74 65 77 70 74 73 132 158 156 165 108 47 49 64 78 67 70 
150 123 109 101 98 70 35 31 9 41 60 125 114 57 68 140 212 179 122 188 203 202 156 153 157 177 111 15 17 20 38 68 47 20 10 15 10 26 50 59 24 36 44 73 96 96 90 109 64 59 59 86 85 136 197 193 118 85 31 40 54 65 50 37 
150 132 124 120 95 76 52 45 25 35 94 147 128 77 58 136 207 110 108 167 189 192 151 133 181 189 96 9 8 12 31 47 58 45 39 16 16 23 35 44 20 36 39 86 107 109 116 128 103 78 89 117 112 179 163 165 116 69 23 39 52 54 43 25 
144 134 116 109 133 114 72 43 26 63 126 151 142 120 71 116 162 87 121 158 175 187 174 157 187 200 106 3 3 6 15 37 58 73 69 44 10 15 22 33 21 34 41 78 105 108 123 136 117 96 86 102 154 187 142 120 94 51 14 33 41 47 41 31 
127 126 103 77 108 126 66 42 47 98 138 149 149 139 114 109 100 94 129 151 162 176 175 194 172 142 95 20 6 4 29 38 46 77 70 64 40 22 17 15 25 25 40 63 103 106 123 137 133 107 107 101 159 161 125 82 47 22 11 31 38 28 34 42 
102 89 74 53 71 91 61 47 80 122 143 147 150 145 140 101 91 114 137 152 156 169 180 180 175 133 91 29 14 32 46 45 52 62 58 48 28 16 10 7 17 33 28 51 68 90 118 143 143 130 80 87 113 102 90 51 29 21 9 21 29 26 37 46 
93 67 44 40 50 64 51 34 62 120 141 127 131 131 166 139 116 129 142 152 150 170 190 176 151 153 127 34 12 21 33 39 57 53 48 38 24 39 49 28 8 24 29 28 49 58 126 141 102 97 69 72 60 41 46 39 31 32 10 10 24 38 43 69 
73 56 33 27 23 39 47 28 50 75 152 138 94 141 185 140 132 127 144 185 199 208 209 188 157 143 162 54 5 10 25 28 70 55 46 33 24 23 23 14 17 15 21 39 30 70 126 144 134 107 78 74 34 17 19 20 26 27 8 22 47 46 72 106 
100 84 32 22 8 26 43 21 44 101 138 129 77 146 198 117 118 139 180 212 227 232 201 175 141 94 132 94 37 46 45 34 67 61 62 27 23 21 15 5 17 28 27 46 82 84 111 113 107 103 67 50 29 6 9 15 25 20 28 47 57 66 94 124 
100 77 48 27 20 36 49 18 39 108 131 113 73 139 192 118 113 140 154 218 186 226 185 195 102 79 71 46 31 53 61 64 67 58 51 14 14 11 9 8 27 19 29 70 109 126 113 62 68 82 58 73 58 4 3 7 18 36 44 52 49 40 56 121 
87 73 53 49 19 23 40 12 14 96 100 92 52 118 202 109 91 150 114 218 179 196 202 166 92 72 51 32 23 38 72 99 92 69 51 21 13 14 7 20 64 56 51 112 137 138 90 33 30 51 57 66 74 23 1 16 43 52 55 51 52 52 45 126 
101 100 54 30 12 26 36 7 7 88 78 84 111 109 217 146 109 143 101 209 196 221 230 162 62 81 59 48 53 67 83 109 107 98 70 46 15 8 14 37 80 91 104 119 133 104 39 15 15 28 47 69 62 22 15 19 39 51 65 69 66 59 55 113 
74 68 62 50 34 44 52 10 13 91 103 123 137 135 176 107 151 143 149 209 220 233 235 142 87 118 78 72 95 93 84 100 118 120 82 54 46 25 20 47 79 98 107 93 99 79 21 13 10 21 40 56 48 28 41 46 75 83 95 80 72 68 64 104 
50 62 55 36 41 59 50 11 35 90 137 148 147 167 181 110 169 141 148 204 227 232 191 115 97 79 63 63 132 123 100 102 125 134 88 44 29 14 31 58 64 72 70 69 54 66 30 20 4 14 33 32 33 44 45 68 112 113 133 142 62 66 71 83 
54 73 64 30 18 32 26 7 44 102 138 160 150 188 176 110 158 142 137 177 177 158 107 69 56 43 74 94 104 113 140 132 129 125 67 38 37 51 57 57 63 45 45 39 40 69 50 28 11 17 19 17 32 55 89 107 115 120 129 144 83 107 73 70 
62 85 73 56 19 19 15 38 70 81 96 141 160 211 168 137 176 142 109 131 128 126 61 66 46 53 106 101 111 121 151 136 134 113 60 87 64 59 58 50 32 15 25 36 24 73 64 30 18 10 17 20 51 73 82 135 123 123 146 134 105 123 95 57 
71 61 45 54 42 30 20 44 61 69 62 134 186 185 119 84 115 91 100 107 125 87 49 57 44 75 95 86 98 92 147 142 125 86 70 80 63 65 60 35 21 8 24 31 22 55 69 29 15 30 40 35 36 65 81 112 123 140 142 140 132 139 127 48 
36 32 23 39 21 23 24 37 51 67 61 125 117 109 66 56 74 73 74 83 117 92 58 63 47 49 69 79 80 100 156 127 93 76 65 70 54 44 28 22 14 4 16 41 40 34 57 41 25 48 48 41 33 43 66 103 131 140 141 145 141 129 112 113 
13 13 10 13 10 30 26 28 47 62 57 83 70 57 49 29 36 61 84 73 116 99 74 86 97 43 49 83 74 106 151 131 94 73 74 56 29 19 11 19 16 2 9 21 30 37 29 46 70 36 55 53 46 41 43 99 133 139 144 128 138 117 110 120 
8 4 3 4 6 29 26 28 43 67 57 59 48 52 26 13 37 46 81 111 97 102 105 124 73 59 64 78 94 141 144 136 115 77 59 24 14 11 14 18 9 1 8 8 13 33 40 53 69 97 40 61 60 63 63 97 138 143 133 135 119 104 104 106 
16 14 13 12 13 23 27 38 67 47 45 66 57 33 14 8 30 70 77 85 99 93 108 146 82 61 52 93 126 142 141 137 133 117 99 62 27 12 13 16 6 0 4 7 26 49 51 53 102 151 101 55 64 71 64 113 135 140 142 125 110 106 105 103 
19 22 21 22 29 40 46 63 76 69 43 55 42 12 7 11 55 99 68 99 92 63 92 105 66 64 92 128 139 140 139 137 141 138 124 104 69 74 67 37 21 9 15 28 40 54 49 117 165 186 158 107 70 58 74 101 139 133 130 116 104 103 103 93 
35 29 27 35 47 58 61 68 69 89 71 64 27 15 39 71 73 54 46 109 100 72 69 80 72 95 128 138 138 137 136 137 137 104 115 85 43 45 52 38 15 27 31 44 50 54 126 178 192 196 185 166 125 69 61 82 145 130 113 105 101 99 96 99 
71 66 49 40 50 66 69 78 91 111 93 71 28 65 56 53 49 48 49 110 104 72 69 97 121 131 137 138 136 134 131 122 103 89 87 86 71 59 40 21 22 38 44 51 62 139 177 191 195 196 192 185 172 119 76 49 124 121 109 108 103 97 69 79 
52 53 41 45 45 59 71 79 107 118 118 114 107 118 112 66 42 44 51 85 92 110 111 127 135 137 137 136 129 129 112 82 79 52 85 89 83 46 25 30 33 44 53 80 146 182 191 194 193 196 195 192 179 133 137 75 91 116 109 105 101 75 37 49 
33 34 25 37 38 62 67 74 101 119 121 124 125 131 130 114 100 96 101 113 123 128 129 132 131 138 126 123 115 107 74 70 86 62 82 84 55 26 29 41 48 50 68 133 182 194 194 194 195 196 196 188 162 137 135 114 81 90 112 100 88 40 30 36 
26 34 18 34 38 60 76 92 116 122 124 126 129 132 132 126 123 122 123 127 130 132 134 134 134 134 121 107 100 88 60 60 42 55 68 57 36 35 41 53 59 82 77 125 200 197 195 196 196 195 199 171 152 138 129 134 120 90 90 97 61 24 24 24 
17 36 27 26 30 59 72 80 114 130 127 129 134 136 136 133 132 132 131 129 131 133 133 133 131 130 120 108 90 68 58 41 23 44 32 39 42 53 39 37 67 75 76 91 170 200 197 198 198 190 182 155 142 134 138 132 136 133 98 75 36 21 29 17 
5 25 33 29 32 56 63 81 108 148 129 130 137 139 139 136 133 133 131 132 132 133 133 132 130 127 122 97 72 57 55 57 19 30 19 31 43 44 43 35 58 71 83 85 116 182 198 197 174 181 158 144 135 133 137 140 130 101 105 93 30 28 27 10 
3 14 28 25 36 42 56 69 82 129 128 132 138 138 135 132 132 132 132 135 135 136 135 132 124 102 102 76 59 50 44 60 25 12 7 21 30 40 43 33 35 64 74 81 74 131 178 185 160 165 147 142 138 131 129 169 132 112 52 89 74 21 16 10 
